<svg width="20" height="17" viewBox="0 0 20 17" fill="none" xmlns="http://www.w3.org/2000/svg">
<path d="M6.08 16.24C4.90667 16.24 3.86667 15.92 2.96 15.28C2.06667 14.64 1.36667 13.74 0.86 12.58C0.366667 11.4067 0.12 10.06 0.12 8.54C0.12 7.02 0.366667 5.68 0.86 4.52C1.36667 3.36 2.06667 2.46 2.96 1.82C3.85333 1.18 4.88667 0.859999 6.06 0.859999C7.24667 0.859999 8.29333 1.18 9.2 1.82C10.1067 2.46 10.8067 3.36 11.3 4.52C11.8067 5.68 12.06 7.02 12.06 8.54C12.06 10.06 11.8067 11.4067 11.3 12.58C10.8067 13.74 10.1067 14.64 9.2 15.28C8.30667 15.92 7.26667 16.24 6.08 16.24ZM2.84 8.54C2.84 10.1533 3.12667 11.4267 3.7 12.36C4.27333 13.2933 5.06667 13.76 6.08 13.76C7.09333 13.76 7.88667 13.3 8.46 12.38C9.04667 11.4467 9.34 10.1667 9.34 8.54C9.34 6.92667 9.04667 5.66 8.46 4.74C7.88667 3.80667 7.08667 3.34 6.06 3.34C5.04667 3.34 4.25333 3.8 3.68 4.72C3.12 5.64 2.84 6.91333 2.84 8.54ZM16.6202 3.42H13.7402V1.1H19.3402V16H16.6202V3.42Z" fill="white"/>
</svg>
