<svg width="25" height="17" viewBox="0 0 25 17" fill="none" xmlns="http://www.w3.org/2000/svg">
<path d="M6.08 16.24C4.90667 16.24 3.86667 15.92 2.96 15.28C2.06667 14.64 1.36667 13.74 0.86 12.58C0.366667 11.4067 0.12 10.06 0.12 8.54C0.12 7.02 0.366667 5.68 0.86 4.52C1.36667 3.36 2.06667 2.46 2.96 1.82C3.85333 1.18 4.88667 0.859999 6.06 0.859999C7.24667 0.859999 8.29333 1.18 9.2 1.82C10.1067 2.46 10.8067 3.36 11.3 4.52C11.8067 5.68 12.06 7.02 12.06 8.54C12.06 10.06 11.8067 11.4067 11.3 12.58C10.8067 13.74 10.1067 14.64 9.2 15.28C8.30667 15.92 7.26667 16.24 6.08 16.24ZM2.84 8.54C2.84 10.1533 3.12667 11.4267 3.7 12.36C4.27333 13.2933 5.06667 13.76 6.08 13.76C7.09333 13.76 7.88667 13.3 8.46 12.38C9.04667 11.4467 9.34 10.1667 9.34 8.54C9.34 6.92667 9.04667 5.66 8.46 4.74C7.88667 3.80667 7.08667 3.34 6.06 3.34C5.04667 3.34 4.25333 3.8 3.68 4.72C3.12 5.64 2.84 6.91333 2.84 8.54ZM19.0202 16.24C18.2068 16.24 17.4335 16.0867 16.7002 15.78C15.9802 15.4733 15.3602 15.04 14.8402 14.48C14.3335 13.92 13.9868 13.2733 13.8002 12.54L16.1802 11.7C16.4202 12.3667 16.7868 12.88 17.2802 13.24C17.7735 13.6 18.3535 13.78 19.0202 13.78C19.8202 13.78 20.4602 13.5533 20.9402 13.1C21.4335 12.6467 21.6802 12.0333 21.6802 11.26C21.6802 10.5 21.4335 9.9 20.9402 9.46C20.4602 9.00667 19.8135 8.78 19.0002 8.78C18.4402 8.78 17.9335 8.88667 17.4802 9.1L16.8602 7.8L20.7202 3.4H14.6402V1.1H23.7802V3.24L20.7202 6.82C21.8402 6.99333 22.7335 7.47333 23.4002 8.26C24.0668 9.03333 24.4002 10.0067 24.4002 11.18C24.4002 12.1267 24.1668 12.9867 23.7002 13.76C23.2335 14.5333 22.5868 15.14 21.7602 15.58C20.9468 16.02 20.0335 16.24 19.0202 16.24Z" fill="white"/>
</svg>
