<svg width="25" height="17" viewBox="0 0 25 17" fill="none" xmlns="http://www.w3.org/2000/svg">
<path d="M6.08 16.24C4.90667 16.24 3.86667 15.92 2.96 15.28C2.06667 14.64 1.36667 13.74 0.86 12.58C0.366667 11.4067 0.12 10.06 0.12 8.54C0.12 7.02 0.366667 5.68 0.86 4.52C1.36667 3.36 2.06667 2.46 2.96 1.82C3.85333 1.18 4.88667 0.859999 6.06 0.859999C7.24667 0.859999 8.29333 1.18 9.2 1.82C10.1067 2.46 10.8067 3.36 11.3 4.52C11.8067 5.68 12.06 7.02 12.06 8.54C12.06 10.06 11.8067 11.4067 11.3 12.58C10.8067 13.74 10.1067 14.64 9.2 15.28C8.30667 15.92 7.26667 16.24 6.08 16.24ZM2.84 8.54C2.84 10.1533 3.12667 11.4267 3.7 12.36C4.27333 13.2933 5.06667 13.76 6.08 13.76C7.09333 13.76 7.88667 13.3 8.46 12.38C9.04667 11.4467 9.34 10.1667 9.34 8.54C9.34 6.92667 9.04667 5.66 8.46 4.74C7.88667 3.80667 7.08667 3.34 6.06 3.34C5.04667 3.34 4.25333 3.8 3.68 4.72C3.12 5.64 2.84 6.91333 2.84 8.54ZM14.0802 13.94L18.1202 9.72C18.9868 8.81333 19.6202 8.12667 20.0202 7.66C20.4202 7.18 20.7068 6.76667 20.8802 6.42C21.0535 6.06 21.1402 5.69333 21.1402 5.32C21.1402 4.70667 20.9468 4.22 20.5602 3.86C20.1735 3.48667 19.6668 3.3 19.0402 3.3C18.3868 3.3 17.8268 3.48667 17.3602 3.86C16.9068 4.22 16.5735 4.75333 16.3602 5.46L13.9802 4.72C14.1402 3.94667 14.4602 3.27333 14.9402 2.7C15.4335 2.11333 16.0402 1.66 16.7602 1.34C17.4802 1.02 18.2402 0.859999 19.0402 0.859999C19.9868 0.859999 20.8268 1.04 21.5602 1.4C22.2935 1.74667 22.8602 2.24 23.2602 2.88C23.6735 3.50667 23.8802 4.22667 23.8802 5.04C23.8802 5.84 23.6602 6.62 23.2202 7.38C22.7935 8.12667 22.0935 9.00667 21.1202 10.02L17.6202 13.7H24.0802V16H14.0802V13.94Z" fill="white"/>
</svg>
